<?xml version="1.0" encoding="UTF-8"?>
<svg xmlns="http://www.w3.org/2000/svg" xmlns:xlink="http://www.w3.org/1999/xlink" viewBox="0 0 3000 3000.24">
  <defs>
    <style>
      .cls-1 {
        fill: url(#linear-gradient);
      }

      .cls-2 {
        fill: url(#linear-gradient-4);
      }

      .cls-2, .cls-3, .cls-4 {
        mix-blend-mode: color-dodge;
        opacity: .18;
      }

      .cls-3 {
        fill: url(#linear-gradient-6);
      }

      .cls-4 {
        fill: url(#linear-gradient-5);
      }

      .cls-5 {
        fill: url(#linear-gradient-3);
      }

      .cls-6 {
        fill: url(#linear-gradient-2);
      }

      .cls-7 {
        isolation: isolate;
      }
    </style>
    <linearGradient id="linear-gradient" x1="1427.69" y1="1825.47" x2="2502.69" y2="1107.06" gradientUnits="userSpaceOnUse">
      <stop offset="0" stop-color="#528ad7"/>
      <stop offset="1" stop-color="#20d0d0"/>
    </linearGradient>
    <linearGradient id="linear-gradient-2" x1="1779.9" y1="3659.74" x2="1779.9" y2="1189.65" xlink:href="#linear-gradient"/>
    <linearGradient id="linear-gradient-3" x1="539.52" y1="1551.2" x2="2223.03" y2="341.34" gradientUnits="userSpaceOnUse">
      <stop offset="0" stop-color="#ff7f7f"/>
      <stop offset="1" stop-color="#ff8563"/>
    </linearGradient>
    <linearGradient id="linear-gradient-4" x1="1403.52" y1="1907.54" x2="2606.65" y2="1254.29" gradientUnits="userSpaceOnUse">
      <stop offset="0" stop-color="#fff" stop-opacity="0"/>
      <stop offset="1" stop-color="#fff"/>
    </linearGradient>
    <linearGradient id="linear-gradient-5" x1="470.15" y1="1731.68" x2="2512.59" y2="346.63" xlink:href="#linear-gradient-4"/>
    <linearGradient id="linear-gradient-6" x1="984.68" y1="1799.75" x2="2510.3" y2="2692.8" xlink:href="#linear-gradient-4"/>
  </defs>
  <g class="cls-7">
    <g id="Layer_1" data-name="Layer 1">
      <g>
        <path class="cls-1" d="M2602.53,1258.11v1.77c0,87.22-48.48,167.13-125.74,207.64l-903.4,473.73-171.12-89.65c-26.56-13.95-48.26-31.21-65.3-50.69-82.35-92.75-60.43-235.54,65.3-301.5l856.69-449.16c121.31-63.53,261.44-9.3,317.88,100.72,16.38,31.66,25.68,67.74,25.68,107.14Z"/>
        <path class="cls-6" d="M2602.53,2622.4v1.77c0,39.62-9.3,75.93-25.9,107.58-56.45,109.8-196.35,163.81-317.66,100.28l-498.3-261.21-598.36-313.68c-273.39-143.22-273.39-488.56,0-632l67.96-35.64c.22,0,.22-.22,.44-.22l171.56-89.88c-152.3,79.91-152.3,272.28,0,352.2l171.12,89.65,903.4,473.51c77.26,40.51,125.74,120.42,125.74,207.64Z"/>
        <path class="cls-5" d="M2602.53,375.96c0,87.22-48.26,167.35-125.74,207.86L983.66,1366.59c-11.29,5.98-22.14,12.17-32.98,18.37l-1.11,.66c-212.96,124.85-338.91,330.06-338.91,555.63,0,2.21,0,4.43,.22,6.86-94.97-81.02-158.06-180.19-189.49-285.56-76.81-254.57,31.44-544.56,324.3-698.64L2258.74,168.32c120.42-63.31,259.67-10.4,317,98.07,17.05,32.1,26.79,69.29,26.79,109.58Z"/>
        <path class="cls-2" d="M2602.53,1258.11v1.77c0,87.22-48.48,167.13-125.74,207.64l-903.4,473.73-171.12-89.65c-26.56-13.95-48.26-31.21-65.3-50.69l1239.88-649.94c16.38,31.66,25.68,67.74,25.68,107.14Z"/>
        <path class="cls-4" d="M2602.53,375.96c0,87.22-48.26,167.35-125.74,207.86L983.66,1366.59c-11.29,5.98-22.14,12.17-32.98,18.37l-1.11,.66c-212.96,124.85-338.91,330.06-338.91,555.63,0,2.21,0,4.43,.22,6.86l-30.77-69.07c-114.89-258.56-9.3-561.83,241.07-693.1L2575.74,266.39c17.05,32.1,26.79,69.29,26.79,109.58Z"/>
        <path class="cls-3" d="M2576.63,2731.76c-56.45,109.8-196.35,163.81-317.66,100.28l-498.3-261.21-598.36-313.68c-273.39-143.22-273.39-488.56,0-632l67.96-35.64c-175.54,92.53-175.32,344,.44,436.31l1345.92,705.94Z"/>
      </g>
    </g>
  </g>
</svg>